<?xml version="1.0" standalone="no"?>
<svg version="1.0" xmlns="http://www.w3.org/2000/svg"
 width="500" height="500" viewBox="0 0 500 500"
 preserveAspectRatio="xMidYMid meet">

<defs>
  <!-- Gradient xanh lục đậm nhạt -->
  <linearGradient id="greenGradient1" x1="0%" y1="0%" x2="100%" y2="100%">
    <stop offset="0%" style="stop-color:#00FF7F;stop-opacity:1" />
    <stop offset="50%" style="stop-color:#32CD32;stop-opacity:1" />
    <stop offset="100%" style="stop-color:#228B22;stop-opacity:1" />
  </linearGradient>
  
  <!-- Gradient xanh lục nhạt -->
  <linearGradient id="greenGradient2" x1="0%" y1="0%" x2="100%" y2="0%">
    <stop offset="0%" style="stop-color:#90EE90;stop-opacity:1" />
    <stop offset="50%" style="stop-color:#00FF7F;stop-opacity:1" />
    <stop offset="100%" style="stop-color:#32CD32;stop-opacity:1" />
  </linearGradient>
  
  <!-- Gradient xanh lục đậm -->
  <linearGradient id="greenGradient3" x1="0%" y1="0%" x2="0%" y2="100%">
    <stop offset="0%" style="stop-color:#228B22;stop-opacity:1" />
    <stop offset="50%" style="stop-color:#006400;stop-opacity:1" />
    <stop offset="100%" style="stop-color:#2E8B57;stop-opacity:1" />
  </linearGradient>
</defs>

<g transform="translate(0.000000,500.000000) scale(0.100000,-0.100000)">
<!-- Chữ "V" - xanh lục gradient -->
<path fill="url(#greenGradient1)" stroke="none" d="M575 3110 c6 -14 53 -110 104 -215 51 -104 117 -239 146 -300 29 -60
102 -211 162 -335 61 -124 123 -253 138 -288 20 -44 33 -62 44 -60 15 3 421
796 421 823 0 12 -93 105 -105 105 -3 0 -71 -133 -152 -295 -80 -162 -150
-295 -155 -295 -5 0 -12 10 -17 23 -5 12 -45 96 -89 187 -43 91 -91 190 -105
220 -14 30 -54 116 -89 190 -35 74 -77 163 -94 198 -16 35 -36 62 -44 62 -8 1
-51 2 -96 3 l-81 2 12 -25z"/>

<!-- Phần logo phía trên - xanh lục nhạt -->
<path fill="url(#greenGradient2)" stroke="none" d="M1155 3130 c-69 -10 -140 -32 -207 -66 -58 -29 -61 -35 -44 -70 8
-16 21 -46 31 -66 l17 -37 61 33 c89 48 139 58 258 54 95 -3 110 -6 180 -39
93 -45 138 -84 185 -160 l37 -59 79 0 c78 0 79 0 73 23 -35 113 -172 270 -285
324 -125 60 -256 81 -385 63z"/>

<path fill="#32CD32" stroke="none" d="M1650 3105 c-12 -23 -10 -27 31 -64 24 -22 46 -40 49 -40 5 -1 70
114 70 123 0 3 -31 6 -68 6 -63 0 -70 -2 -82 -25z"/>

<path fill="url(#greenGradient3)" stroke="none" d="M629 2763 c-41 -90 -52 -145 -52 -253 0 -121 14 -179 69 -279 45 -80
158 -194 236 -238 57 -33 177 -78 185 -70 2 3 -13 42 -35 88 -36 78 -43 87
-100 122 -158 98 -238 276 -204 457 10 53 9 58 -29 138 -22 45 -42 82 -44 82
-3 0 -14 -21 -26 -47z"/>

<!-- Chữ "i" - xanh lục tươi -->
<path fill="#00FF7F" stroke="none" d="M2422 2713 c3 -24 8 -28 41 -31 35 -3 37 -2 37 27 0 30 -2 31 -41 31
-38 0 -40 -1 -37 -27z"/>

<path fill="#00FF7F" stroke="none" d="M2427 2603 c-4 -3 -7 -78 -7 -165 l0 -158 40 0 40 0 2 55 c0 30 1 73
1 95 0 22 -1 72 -1 110 l-2 70 -33 0 c-19 0 -37 -3 -40 -7z"/>

<!-- Chữ "e" - xanh lục gradient -->
<path fill="url(#greenGradient1)" stroke="none" d="M2660 2598 c-82 -42 -112 -146 -69 -235 24 -50 51 -71 106 -84 59
-13 113 4 151 47 17 21 32 41 32 46 0 4 -17 8 -37 8 -27 0 -45 -7 -62 -25 -25
-27 -47 -31 -85 -14 -21 10 -46 53 -46 80 0 5 55 9 121 9 l122 0 -7 42 c-4 24
-15 56 -24 73 -19 33 -92 75 -132 75 -14 0 -46 -10 -70 -22z m129 -64 c37 -47
29 -54 -60 -54 -79 0 -80 0 -74 23 17 59 97 78 134 31z"/>

<!-- Chữ "t" - xanh lục -->
<path fill="#228B22" stroke="none" d="M2980 2660 c0 -47 -2 -50 -25 -50 -21 0 -25 -5 -25 -30 0 -25 4 -30
25 -30 l25 0 0 -114 c0 -112 1 -115 26 -135 20 -15 41 -21 80 -21 53 0 54 0
54 30 0 28 -3 30 -35 30 -46 0 -55 20 -55 124 l0 85 43 3 c37 3 42 6 42 28 0
22 -5 25 -42 28 l-43 3 0 50 0 49 -35 0 -35 0 0 -50z"/>

<!-- Chữ "s" - xanh lục đậm -->
<path fill="url(#greenGradient3)" stroke="none" d="M3275 2725 c-70 -31 -100 -100 -72 -166 16 -39 64 -67 152 -88 70
-17 95 -35 95 -71 0 -70 -135 -85 -174 -19 -14 24 -24 29 -57 29 -43 0 -48
-10 -27 -55 24 -54 117 -89 206 -79 41 5 61 14 93 43 53 47 62 99 27 151 -28
41 -54 55 -145 78 -48 13 -72 25 -86 44 -19 25 -19 28 -3 52 14 23 24 26 71
26 48 0 56 -3 75 -31 19 -25 28 -30 59 -27 32 3 36 6 33 28 -5 32 -38 69 -79
86 -40 17 -128 17 -168 -1z"/>

<!-- Chữ "c" - xanh lục tươi -->
<path fill="#32CD32" stroke="none" d="M3696 2610 c-64 -19 -106 -85 -106 -165 0 -59 19 -104 59 -138 64
-53 199 -27 234 45 l16 33 -36 3 c-28 3 -41 -2 -60 -22 -33 -36 -84 -36 -113
2 -19 23 -21 36 -17 91 5 70 17 87 64 97 27 5 37 1 63 -25 38 -38 90 -44 90
-10 0 29 -50 75 -96 88 -45 13 -58 13 -98 1z"/>

<!-- Chữ "a" - xanh lục gradient -->
<path fill="url(#greenGradient2)" stroke="none" d="M4013 2601 c-41 -19 -63 -45 -63 -75 0 -12 10 -16 40 -16 32 0 40 4
40 19 0 11 12 24 31 32 44 18 84 -4 84 -46 0 -29 -1 -30 -62 -36 -33 -3 -75
-11 -91 -18 -34 -14 -65 -69 -56 -98 13 -41 27 -61 51 -72 34 -16 114 -13 137
4 25 19 36 19 36 0 0 -11 11 -15 36 -15 l37 0 -6 133 c-3 72 -8 140 -12 150
-19 48 -135 69 -202 38z m135 -193 c4 -35 -39 -78 -79 -78 -32 0 -59 32 -52
61 6 23 16 30 57 40 52 13 71 7 74 -23z"/>

<!-- Chữ "n" - xanh lục thẫm -->
<path fill="#006400" stroke="none" d="M4437 2610 c-16 -5 -35 -14 -43 -21 -11 -9 -14 -8 -14 5 0 12 -9 16
-35 16 l-35 0 0 -165 0 -165 35 0 35 0 0 115 c0 110 1 117 25 140 29 30 68 32
95 5 18 -18 20 -33 20 -140 l0 -120 35 0 c44 0 49 17 43 155 -5 117 -18 148
-73 171 -38 16 -48 16 -88 4z"/>

<!-- Các phần còn lại - các tone xanh lục khác nhau -->
<path fill="url(#greenGradient2)" stroke="none" d="M1988 2718 c6 -17 106 -331 137 -425 3 -8 23 -13 54 -13 l49 0 52
163 c29 89 61 187 71 218 26 76 25 79 -20 79 l-39 0 -26 -87 c-15 -49 -35
-115 -45 -148 -10 -33 -21 -72 -25 -87 -4 -16 -10 -28 -15 -28 -4 0 -30 78
-57 173 l-50 172 -46 3 c-44 3 -46 2 -40 -20z"/>

<path fill="url(#greenGradient1)" stroke="none" d="M1685 2418 c-44 -129 -87 -194 -167 -256 -63 -47 -98 -66 -155 -81
-24 -7 -43 -16 -43 -21 0 -5 -13 -38 -30 -72 -16 -34 -30 -65 -30 -69 0 -12
133 18 199 45 80 32 177 101 236 168 53 61 121 193 131 256 l7 42 -72 0 c-48
0 -73 -4 -76 -12z"/>
</g>
</svg>
