<?xml version="1.0" standalone="no"?>
<!DOCTYPE svg PUBLIC "-//W3C//DTD SVG 20010904//EN"
 "http://www.w3.org/TR/2001/REC-SVG-20010904/DTD/svg10.dtd">
<svg version="1.0" xmlns="http://www.w3.org/2000/svg"
viewBox="0 0 2048.000000 2048.000000"
 preserveAspectRatio="xMidYMid meet">

<g transform="translate(0.000000,2048.000000) scale(0.100000,-0.100000)"
fill="#008000" stroke="none">
<path d="M6330 12043 c-307 -29 -487 -121 -618 -317 -26 -39 -81 -147 -121
-241 -74 -171 -179 -407 -464 -1044 -85 -190 -158 -346 -163 -348 -9 -3 -120
227 -239 492 -34 77 -115 255 -180 395 -64 140 -141 311 -172x` 379 -86 197
-162 300 -272 371 -106 67 -200 79 -653 79 -336 1 -378 -1 -378 -15 0 -23 152
-377 199 -464 7 -13 46 -15 252 -15 269 -1 312 -8 424 -74 130 -75 170 -134
304 -441 202 -466 237 -546 341 -775 59 -132 137 -307 172 -390 140 -326 193
-445 199 -445 7 0 12 10 101 215 183 417 295 669 378 850 17 39 79 180 137
315 58 135 138 317 178 405 40 88 107 243 149 345 105 251 127 295 187 370
124 156 298 253 559 314 63 15 129 31 145 36 29 8 -386 11 -465 3z"/>
<path d="M6745 11837 c-27 -5 -56 -17 -63 -26 -8 -9 -11 -10 -7 -3 5 10 0 11
-22 6 -72 -17 -214 -79 -274 -120 -105 -71 -151 -127 -224 -276 -66 -132 -239
-521 -310 -693 -21 -49 -57 -129 -81 -176 -23 -47 -61 -128 -82 -180 -51 -121
-190 -437 -331 -754 -62 -137 -127 -284 -145 -325 -131 -296 -240 -530 -245
-530 -8 0 -73 141 -236 510 -62 140 -131 295 -154 344 -23 49 -82 184 -132
300 -50 116 -111 249 -134 296 -23 47 -88 193 -145 325 -56 132 -122 281 -146
331 -75 158 -162 230 -305 253 -76 13 -349 15 -349 3 0 -9 98 -239 250 -587
50 -115 127 -293 170 -395 43 -102 115 -268 160 -370 95 -216 354 -812 412
-950 150 -355 167 -388 239 -459 62 -61 150 -108 236 -126 248 -53 484 49 586
251 41 82 431 962 529 1194 22 52 49 115 60 140 11 25 62 142 113 260 51 118
148 341 215 495 67 154 146 336 175 405 29 69 90 211 135 315 45 105 104 242
130 305 27 63 62 140 79 170 17 30 31 61 31 68 0 15 -62 14 -135 -1z"/>
<path d="M8640 10783 c-88 -32 -132 -89 -132 -173 0 -139 143 -222 278 -161
102 47 132 192 56 275 -49 52 -144 80 -202 59z"/>
<path d="M6800 10567 c0 -13 53 -146 100 -252 20 -45 79 -187 177 -425 19 -47
102 -256 185 -465 82 -209 156 -390 164 -403 14 -22 18 -22 162 -20 l146 3 63
155 c35 85 92 232 128 325 36 94 91 229 122 300 31 72 107 258 170 413 62 156
120 296 127 310 7 15 17 37 20 50 l7 22 -134 0 c-103 0 -137 -3 -146 -14 -34
-41 -194 -425 -372 -891 -118 -310 -117 -305 -126 -305 -5 0 -79 177 -165 393
-168 419 -318 784 -331 805 -12 18 -297 17 -297 -1z"/>
<path d="M10668 10363 l-3 -158 -90 -5 -90 -5 -2 -112 -2 -113 89 0 90 0 0
-307 c0 -333 8 -399 53 -489 51 -101 153 -171 282 -195 93 -17 259 12 322 56
l22 15 -35 98 c-19 53 -39 100 -43 105 -4 4 -29 -2 -56 -14 -35 -16 -61 -20
-97 -17 -61 6 -96 31 -125 88 -22 43 -23 53 -23 352 l0 308 155 0 155 0 0 115
0 114 -152 3 -153 3 -7 147 c-3 81 -9 152 -13 158 -4 6 -58 10 -140 10 l-134
0 -3 -157z"/>
<path d="M12057 10494 c-4 -4 -27 -7 -50 -6 -64 4 -184 -24 -262 -62 -89 -41
-159 -111 -199 -196 -28 -59 -31 -74 -31 -160 0 -82 4 -103 27 -153 40 -84
119 -163 203 -203 39 -18 144 -53 235 -78 259 -71 281 -80 335 -127 71 -62 69
-156 -5 -223 -116 -105 -394 -93 -635 28 -73 37 -108 50 -114 42 -18 -22 -82
-178 -78 -190 3 -6 42 -33 88 -59 145 -82 326 -128 504 -129 253 -1 454 101
538 271 30 61 32 72 32 171 0 100 -2 108 -33 166 -19 34 -46 73 -60 87 -74 71
-200 123 -447 187 -204 52 -283 100 -304 185 -19 76 16 147 92 187 33 18 64
23 149 26 123 5 224 -12 351 -59 115 -43 123 -44 132 -22 22 54 55 159 55 174
0 30 -155 96 -289 123 -85 18 -225 29 -234 20z"/>
<path d="M13376 10464 c-94 -21 -174 -59 -277 -132 -137 -97 -205 -187 -263
-349 -30 -84 -31 -95 -31 -238 1 -176 19 -257 88 -389 96 -184 301 -325 534
-366 87 -16 263 -8 348 15 33 9 88 30 122 46 67 32 210 140 220 165 4 11 -20
42 -72 94 l-78 78 -50 -40 c-106 -83 -207 -118 -342 -118 -148 0 -254 42 -352
140 -100 99 -149 241 -140 405 9 176 76 304 205 392 186 127 464 107 633 -45
l48 -43 44 48 c71 77 97 110 97 125 0 34 -141 135 -238 172 -37 14 -96 32
-132 41 -83 19 -272 18 -364 -1z"/>
<path d="M14820 10457 c-28 -14 -35 -28 -195 -377 -247 -539 -474 -1061 -468
-1072 7 -14 248 -9 266 5 9 6 47 89 85 182 38 94 123 301 189 460 66 160 139
338 163 398 48 120 64 147 78 132 10 -11 238 -590 248 -630 l6 -25 -198 -2
-199 -3 -32 -100 c-18 -55 -33 -103 -33 -107 0 -4 127 -9 281 -10 l282 -3 54
-135 c30 -74 60 -140 66 -146 14 -14 277 -26 277 -13 0 5 -18 48 -39 96 -22
49 -122 282 -224 518 -229 531 -351 802 -373 826 -14 16 -32 19 -113 19 -57 0
-106 -5 -121 -13z"/>
<path d="M16849 10463 c-22 -6 -29 -151 -29 -610 0 -240 -3 -363 -10 -363 -6
0 -25 21 -43 46 -61 88 -481 640 -622 818 l-80 101 -111 3 -111 3 -6 -197
c-11 -329 -8 -1252 4 -1259 5 -4 66 -4 135 0 l125 7 -1 477 c-1 262 -1 482 -1
489 1 19 18 6 54 -43 18 -23 127 -167 242 -320 116 -152 264 -351 330 -441
l120 -163 118 -1 118 0 -3 715 c-2 529 -6 717 -15 726 -11 11 -181 21 -214 12z"/>
<path d="M9600 10214 c-192 -41 -323 -138 -407 -300 -58 -111 -76 -187 -76
-314 0 -187 51 -318 168 -436 79 -79 189 -141 305 -171 82 -21 283 -23 360 -4
117 29 310 140 310 178 0 8 -29 47 -65 86 -36 39 -65 75 -65 79 0 16 -20 7
-76 -32 -86 -60 -140 -75 -274 -75 -129 0 -176 15 -256 80 -40 33 -114 157
-114 191 0 12 80 14 475 14 l475 0 1 45 c1 25 2 51 3 58 1 6 -2 43 -6 80 -22
212 -148 398 -323 477 -126 58 -295 75 -435 44z m305 -247 c65 -33 108 -79
139 -147 32 -73 41 -116 24 -121 -7 -2 -160 -3 -340 -1 l-327 3 15 50 c33 112
109 196 208 231 76 27 213 20 281 -15z"/>
<path d="M8550 9610 l0 -610 135 0 135 0 10 26 c11 28 14 1151 4 1178 -5 14
-28 16 -145 16 l-139 0 0 -610z"/>
</g>
</svg>
